# xmcd
#
# Track frame offsets:
#	150
#	13268
#	24892
#	45968
#	60681
#	69496
#	101958
#	113404
#	125456
#	141362
#	153040
#	155364
#	173030
#	185338
#
# Disc length: 2549 seconds
#
# Revision: 2
# Processed by: cddbd v1.5.1PL2 Copyright (c) Steve Scherf et al.
# Submitted via: dBpowerAMP V4.0
#
DISCID=ac09f30e
DTITLE=Scott Biram - The Dirty Old One Man Band
DYEAR=2005
DGENRE=Blues
TTITLE0=Blood, Sweat and Murder
TTITLE1=Hit The Road
TTITLE2=Someday Baby
TTITLE3=Wreck My Car
TTITLE4=Raisin' Hell Again
TTITLE5=I See The Light/What's His Name?
TTITLE6=Whiskey
TTITLE7=Muleskinner Blues
TTITLE8=Truck Driver
TTITLE9=Sweet Thing
TTITLE10=BBQ Commercial
TTITLE11=Throw A Boogie
TTITLE12=Downtown Chicken
TTITLE13=CB Transmissions
EXTD=
EXTT0=
EXTT1=
EXTT2=
EXTT3=
EXTT4=
EXTT5=
EXTT6=
EXTT7=
EXTT8=
EXTT9=
EXTT10=
EXTT11=
EXTT12=
EXTT13=
PLAYORDER=
